<?xml version="1.0" encoding="UTF-8"?>
<!DOCTYPE svg PUBLIC "-//W3C//DTD SVG 1.1//EN" "http://www.w3.org/Graphics/SVG/1.1/DTD/svg11.dtd">
<svg xmlns="http://www.w3.org/2000/svg" xml:space="preserve" width="305mm" height="95.45mm" version="1.1" style="shape-rendering:geometricPrecision; text-rendering:geometricPrecision; image-rendering:optimizeQuality; fill-rule:evenodd; clip-rule:evenodd"
viewBox="0 0 18304.79 5728.5"
 xmlns:xlink="http://www.w3.org/1999/xlink">
 <defs>
  <style type="text/css">
    .str0 {stroke:#FEFEFE;stroke-width:12;stroke-miterlimit:22.9256}
    .str2 {stroke:#002C47;stroke-width:4.57;stroke-miterlimit:22.9256}
    .str1 {stroke:#024873;stroke-width:4.57;stroke-miterlimit:22.9256}
    .str4 {stroke:#E03C00;stroke-width:4.57;stroke-miterlimit:22.9256}
    .str3 {stroke:#F2B705;stroke-width:4.57;stroke-miterlimit:22.9256}
    .fil5 {fill:#FEFEFE}
    .fil0 {fill:#E6E7E8}
    .fil6 {fill:#373435}
    .fil2 {fill:#002C47}
    .fil1 {fill:#024873}
    .fil4 {fill:#E03C00}
    .fil3 {fill:#F2B705}
  </style>
 </defs>
 <g id="Warstwa_x0020_1">
  <rect class="fil0 str0" x="6" y="6" width="18292.79" height="5716.5"/>
  <rect class="fil1 str1" x="6" y="2514.9" width="698.68" height="698.69"/>
  <rect class="fil2 str2" x="6" y="1816.22" width="698.68" height="698.69"/>
  <rect class="fil3 str3" x="6.01" y="3213.59" width="698.68" height="698.69"/>
  <rect class="fil4 str4" x="6" y="3912.27" width="698.68" height="698.69"/>
  <rect class="fil1" x="9390.58" y="1117.54" width="3493.41" height="3493.41"/>
  <rect class="fil5" x="5420.8" y="1117.54" width="3493.41" height="3493.41"/>
  <g id="_2028795189728">
   <path class="fil1" d="M7167.51 1583.71c706.43,0 1279.11,572.67 1279.11,1279.1 0,706.43 -572.68,1279.11 -1279.11,1279.11 -706.43,0 -1279.11,-572.68 -1279.11,-1279.11 0,-706.43 572.68,-1279.1 1279.11,-1279.1z"/>
   <path class="fil5" d="M7967.59 2309.3l-68.43 64.44 -174.3 -185.09 -136.58 -97.98 -120.6 -41.33 2.7 -30.19 -16.08 25.71 -143.65 -48.06 8.51 -92.7c-32.01,-4.93 -64.52,-8.32 -97.47,-10.06l4.75 62.54c2.01,26.54 -2.96,52.58 -17.51,75.12 -13.5,20.93 -32.38,36.6 -54.76,47.39 -22.44,10.81 -46.73,16.49 -71.5,18.36 -14.27,1.08 -28.63,0.92 -42.89,-0.19 -16.12,-1.27 -31.92,-4.66 -47.08,-10.26 -17.34,-6.41 -32.63,-16.5 -45.42,-29.84l-22.76 -23.4 -161.05 60.96 -129.4 83.31 -54.79 -85.11c-27.6,21.17 -54.07,43.74 -79.22,67.69 -1.09,1.1 -2.2,2.21 -3.33,3.29l71.93 75.73 -110.78 105.25 -63.03 -66.36c-123.26,162.86 -196.41,365.74 -196.41,585.73 0,536.59 434.99,971.58 971.58,971.58 536.59,0 971.58,-434.99 971.58,-971.58 0,-40.77 -2.54,-80.94 -7.42,-120.4 2.53,0.11 5.06,0.17 7.61,0.17 98.18,0 177.77,-79.59 177.77,-177.77 0,-98.18 -79.59,-177.77 -177.77,-177.77 -39.62,0 -76.21,12.97 -105.77,34.89 -20.24,-39.68 -43.13,-77.77 -68.43,-114.07z"/>
   <path class="fil1" d="M7511.96 3128.96c48.04,-99.09 47.41,-192.57 47.97,-243.74 0.56,-51.17 28.53,19.18 51.63,46.55 23.11,27.39 74.89,81.03 126.33,85.52 21.4,53.36 124.92,121.71 69.49,49.77 -6.47,-8.4 -12.05,-17.09 -17.75,-25.61 -10.56,-15.81 -11.49,-51.4 10.51,-66 38,21.95 12.54,54.07 31.68,93.21 6.01,12.27 18.14,23.73 35.49,27.01 23.21,4.39 28.81,0.61 47.63,-6.22 9.31,-5.28 7.48,-12.72 1.31,-15.99 -28.21,-1.21 -35.15,6.3 -49.07,-4.87 -13.92,-11.16 -19.78,-21.74 -10.25,-41.71 20.45,-42.86 78.41,-18.71 83.22,-18.13 -6.49,-16.14 -12.74,-25.07 -29.26,-31.08 -23.06,-8.37 -38.83,4.22 -59.58,8.1 5.2,-23.82 26.77,-35.32 31.75,-57.05 -18.81,-3.7 -47.66,15.69 -66.79,12.82 -5.53,-13.19 20.37,-29.99 28.57,-35.42 118.36,-78.32 195.06,113.63 73.69,251.63 -14.42,16.38 -53.52,41.04 -83.85,53.33 -107.26,43.44 -237.81,-3.67 -322.72,-82.13z"/>
   <path class="fil1" d="M7450.96 3393.96c34.13,-2.69 47.48,-8.35 58.11,-19.89 33.02,-38.18 30.49,-88.07 10.21,-141.25 -4.53,-11.88 -15.98,-52.73 -25.55,-61.31 -33.82,51.58 -52.65,84.17 -96.85,128.92 -21.4,21.69 -86.97,75.01 -110.24,90.89 52.43,5.77 130.19,5.34 164.32,2.63z"/>
   <path class="fil1" d="M7030.55 3108.54c0.7,-3.29 1.31,-6.51 1.8,-9.63 10.41,-65.66 4.96,-182.81 -98.89,-264.2 -103.85,-81.38 -232.01,-41.76 -270.05,-20.63l-22.83 -57.09c-7.06,-11.84 -19.96,-37.1 -37.26,-35.63 0.2,9.68 13.47,54.58 13.97,94.66 0.64,51 -33.29,33.96 -52.41,59.78 1.91,16.29 9.28,18.19 21.52,27.48 0.02,30.13 -35.84,73.67 -38.07,171.43 -0.28,12.5 0.13,24.8 1.02,37.26 1,13.97 3.96,42.95 -29.19,22.91 -23.47,-14.19 -23.08,-57.47 -35.55,-80.84 -12.83,15.04 -11.7,36.3 -10.44,59.75 0.47,8.82 1.26,12.16 -2.9,19.71 -37.94,0.16 -51.08,-75.47 -61.28,-82.52 -4.55,5.65 -3.93,6.81 -4.61,12.17 -2.03,15.51 7.63,41.22 -5.02,52.77 -20.83,-8.21 -28.8,-61.04 -29.09,-81.53 -0.29,-20.49 6.26,-33.59 11.75,-48.04 9.93,-26.13 11.99,-14.77 7.77,-46.1 -6.16,-45.66 -5.04,-69.46 3.45,-113.65 42.32,-220.28 247.81,-303.15 424.93,-296.59l25.9 -63.78c37.98,-93.36 117.55,-185.98 205.1,-229.99 161,-80.94 327.21,-45.17 464,54.14 20.02,14.54 30.72,21.22 45.33,37.16 12.09,13.19 29.83,34.25 41.04,52.99 11.2,18.74 26.35,38.77 29.95,71.68 3.6,32.9 -21.11,68.93 -35.33,85.62 -14.22,16.68 -46.33,44.09 -71.63,55.48 -3.4,-11.69 0.22,-13.51 10.88,-30.06 -8.77,2.39 -14.52,6.71 -23.18,8.88 -4.53,-10.62 -6.41,-25.15 -11.19,-35.2 -5.81,-12.21 -7.75,-21.16 -22.27,-22.73l2.47 61.16c-4.21,1.68 -14.16,3.04 -25.09,-0.44l2.25 1.72 -2.67 -1.92c-2.47,-3.07 -1.38,-10.08 -3.77,-13.52 -26.86,-38.54 -80.31,-90.55 -115.97,-121.02 -50.79,-43.4 -100.89,-79.79 -191.26,-75.3l10.11 4.78c39.02,15.86 23.44,13.22 50.2,28.59 -6.43,5.2 -14.88,5.1 -23.66,7.15 -18.39,4.31 -37.98,15.68 -50.32,28.06 -42.1,42.23 -51.06,114.07 -39.62,174.33 7.92,41.76 21.82,59.99 27.32,81.49 -23.49,9.16 -48.06,37.61 -61.29,54.16 -86.78,108.53 11.84,286.86 261.63,201.93 77.08,-26.2 127.8,-74.85 144.73,-89.02l2.92 0.14 46.26 7.21 2.43 29.54 -0.67 8.82c-8.95,13.4 -17.87,25.36 -21.4,29.37 -92.86,117.94 -292.43,257.79 -461.81,177.12z"/>
   <path class="fil1" d="M6845.25 3320.81c13.81,28.1 70.19,112.13 165,113.96 -60.47,29.05 -107.46,33.07 -166.08,42.02 -58.62,8.94 -146.13,-30.49 -198.07,-80.66 -51.94,-50.18 -94.61,-119.92 -87.45,-201.77 7.14,11.23 17.13,22.19 29.52,38.1 46.68,59.95 142.44,117.43 257.08,88.36z"/>
   <g>
    <path class="fil3" d="M7178.81 2815.37c1.06,-29.65 27.11,-58.44 45.64,-71.88 85.59,-62.12 145.24,-20.02 208.1,-85.47 32.8,-34.17 44.36,-16.71 122.91,19.46 50.19,23.11 110.69,48.01 146.34,89.71 15.97,18.69 33.27,59.73 11.25,84.45 -6.84,-5.83 -16.1,-15.83 -21.56,-20.02 -48.46,-37.22 -152.06,-58.81 -210.88,-69.41 -47.47,-8.55 -95.99,-15.44 -144.94,-14.24 -21.08,0.52 -98.22,7.37 -107.92,33.16 -12.54,33.34 48.78,7.11 75.68,3.99 27.21,-3.17 58.19,-2.95 84.53,-0.18 26.82,2.81 139.35,16.95 155.11,23.9 -6.64,38.41 -45.47,19.06 -77.43,12.8 -171.06,-33.52 -253.42,26.63 -286.85,-6.27z"/>
    <path class="fil3" d="M7429.27 3440.07c-20.25,16.03 -34.47,42.47 -43.21,59.4 39.85,21.83 91.85,43 122.69,60.77 30.84,17.77 80.82,41.7 94.04,47.93 -3.51,-22.03 -4.57,-38.06 -14.61,-66.53 29.87,-6.43 96.67,6.95 131.97,6.94 -14.48,-16.09 -59.16,-38.85 -77.92,-51.55 17.64,-5.45 67.29,-24.09 76.73,-35.7 -32.82,-19.76 -242.76,-27.61 -289.68,-21.25z"/>
    <path class="fil3" d="M6775.2 3646.2c3.97,-25.76 9.76,-44.77 19.87,-71.03 -18.29,1.04 -32.87,12.83 -59.23,15.37 6.53,-14.79 54.48,-45.28 69.95,-56.41 38.87,-26 43.84,-19.87 114.7,-28.72 -38.33,29.01 -122.82,124.35 -145.28,140.8z"/>
   </g>
   <g>
    <path class="fil2" d="M6775.2 3646.2c3.97,-25.76 9.76,-44.77 19.87,-71.03 -18.29,1.04 -32.88,12.82 -59.23,15.37 6.53,-14.79 54.48,-45.28 69.95,-56.41 38.87,-26 43.84,-19.87 114.7,-28.72 -38.33,29.01 -122.82,124.35 -145.28,140.8zm70.04 -325.39c13.81,28.11 70.19,112.13 165,113.96 -60.47,29.05 -107.46,33.07 -166.08,42.02 -58.62,8.95 -146.13,-30.49 -198.07,-80.66 -51.94,-50.18 -94.61,-119.92 -87.45,-201.77 7.14,11.23 17.13,22.19 29.52,38.1 46.68,59.95 142.44,117.43 257.08,88.36zm232.39 85.95c-57,-2.12 -156.96,-11.34 -196.87,-98.41 84.2,-40.3 141.16,-143.78 151.58,-209.44 10.41,-65.66 4.96,-182.81 -98.89,-264.2 -103.86,-81.38 -232.01,-41.76 -270.05,-20.63l-22.83 -57.09c-7.06,-11.84 -19.96,-37.1 -37.26,-35.63 0.2,9.69 13.47,54.58 13.97,94.66 0.64,51 -33.29,33.96 -52.41,59.78 1.91,16.29 9.28,18.19 21.53,27.48 0.02,30.13 -35.85,73.67 -38.07,171.43 -0.28,12.5 0.13,24.8 1.02,37.26 0.99,13.97 3.96,42.95 -29.19,22.91 -23.47,-14.19 -23.08,-57.47 -35.55,-80.84 -12.83,15.04 -11.7,36.3 -10.44,59.75 0.47,8.82 1.26,12.16 -2.9,19.7 -37.95,0.16 -51.08,-75.46 -61.28,-82.52 -4.55,5.65 -3.93,6.81 -4.61,12.17 -2.03,15.51 7.63,41.22 -5.02,52.77 -20.83,-8.21 -28.79,-61.04 -29.09,-81.53 -0.29,-20.49 6.25,-33.59 11.75,-48.04 9.93,-26.13 11.99,-14.77 7.77,-46.1 -6.16,-45.66 -5.04,-69.46 3.45,-113.65 42.32,-220.28 247.81,-303.15 424.93,-296.59l25.9 -63.78c37.98,-93.36 117.55,-185.98 205.1,-229.99 161,-80.94 327.21,-45.17 464,54.13 20.02,14.54 30.72,21.23 45.33,37.17 12.09,13.19 29.83,34.25 41.04,52.99 11.2,18.74 26.35,38.77 29.95,71.68 3.6,32.9 -21.11,68.93 -35.33,85.62 -14.22,16.68 -46.33,44.09 -71.63,55.48 -3.4,-11.69 0.22,-13.51 10.87,-30.06 -8.76,2.39 -14.52,6.71 -23.17,8.88 -4.53,-10.62 -6.41,-25.15 -11.19,-35.2 -5.81,-12.21 -7.75,-21.16 -22.27,-22.73l2.47 61.16c-4.21,1.68 -14.16,3.04 -25.09,-0.44 11.57,8.64 18.04,16.14 18.14,27.24 -15.26,2.66 -21.65,4.23 -40.18,-2.06 -32.73,-11.1 -116.57,-71.89 -147.88,-94.65 -10.69,-7.78 -19.55,-12.39 -30.03,-19.36 -44.86,-29.82 -34.31,6.77 -28.96,16.72 6.49,12.09 6.97,6.66 13.32,17.24 -36.8,59.99 -11.05,113.86 38.47,154.5 -146.32,52.11 -155.97,155.99 -112.7,181.03 27.75,16.05 110.09,-4.05 146.32,-7.72 86.81,-8.8 101.78,6.42 154.11,8.64l46.26 7.21 2.43 29.54 -2.75 36.51c-8.1,163.58 -108.2,292.5 -164.06,342.66 -55.86,50.16 -89.07,84.77 -118.42,99.16 -37.31,18.29 -94.57,37.31 -151.56,35.19zm373.32 -12.8c34.13,-2.69 47.48,-8.35 58.11,-19.89 33.02,-38.18 30.49,-88.06 10.2,-141.25 -4.53,-11.88 -15.98,-52.73 -25.54,-61.31 -33.82,51.58 -52.65,84.17 -96.85,128.92 -21.4,21.69 -86.97,75.01 -110.24,90.89 52.43,5.77 130.19,5.34 164.32,2.63zm-21.69 46.11c-20.25,16.03 -34.47,42.47 -43.21,59.4 39.85,21.83 91.85,43 122.69,60.77 30.84,17.77 80.82,41.7 94.04,47.93 -3.51,-22.04 -4.57,-38.07 -14.61,-66.53 29.87,-6.43 96.67,6.95 131.97,6.94 -14.48,-16.09 -59.16,-38.85 -77.92,-51.55 17.64,-5.45 67.29,-24.09 76.73,-35.7 -32.82,-19.76 -242.76,-27.61 -289.68,-21.25zm-674.4 -602.46c123.15,-22.54 222.32,79.62 234.35,184.3 7.27,63.27 -10.66,124.77 -39.46,165.39 -89.52,126.23 -256.74,128.92 -337.25,-4.59 -14.63,-24.26 -21.76,-49.94 -22.13,-84.42 -1.36,-123.24 41.53,-238.17 164.49,-260.67zm757.08 291.35c48.04,-99.09 47.41,-192.58 47.97,-243.74 0.56,-51.17 28.53,19.18 51.63,46.55 23.11,27.39 74.89,81.03 126.33,85.52 21.4,53.36 124.92,121.71 69.49,49.77 -6.47,-8.4 -12.05,-17.09 -17.75,-25.61 -10.56,-15.81 -11.49,-51.4 10.51,-66 38,21.95 12.54,54.07 31.68,93.21 6.01,12.27 18.14,23.73 35.49,27.01 23.21,4.39 28.81,0.61 47.63,-6.22 9.31,-5.28 7.48,-12.72 1.31,-15.99 -28.21,-1.21 -35.15,6.3 -49.07,-4.87 -13.92,-11.16 -19.78,-21.74 -10.25,-41.71 20.45,-42.86 78.41,-18.71 83.22,-18.13 -6.49,-16.14 -12.74,-25.07 -29.26,-31.08 -23.06,-8.37 -38.83,4.22 -59.58,8.1 5.2,-23.82 26.77,-35.32 31.74,-57.05 -18.81,-3.69 -47.66,15.69 -66.79,12.82 -5.53,-13.19 20.37,-30 28.57,-35.42 118.36,-78.32 195.06,113.63 73.69,251.63 -14.42,16.38 -53.52,41.04 -83.85,53.33 -107.26,43.44 -237.81,-3.67 -322.72,-82.13zm-333.15 -313.59c1.06,-29.65 27.11,-58.44 45.64,-71.88 85.59,-62.12 145.24,-20.02 208.1,-85.47 32.8,-34.17 44.37,-16.71 122.91,19.46 50.19,23.11 110.69,48.01 146.34,89.71 15.97,18.69 33.27,59.73 11.25,84.45 -6.84,-5.83 -16.1,-15.82 -21.56,-20.02 -48.46,-37.22 -152.06,-58.81 -210.88,-69.41 -47.47,-8.56 -95.99,-15.44 -144.94,-14.24 -21.08,0.52 -98.22,7.37 -107.92,33.16 -12.54,33.34 48.78,7.11 75.68,3.99 27.21,-3.17 58.19,-2.95 84.53,-0.18 26.82,2.81 139.35,16.95 155.11,23.9 -6.65,38.41 -45.47,19.06 -77.43,12.8 -171.06,-33.52 -253.42,26.63 -286.85,-6.27zm382.8 -216.15c7.56,-4.62 12.92,-6.65 21.73,-14.85 2.85,35.42 -10.6,57.68 -43.45,49.78 3.98,-0.81 3.64,-0.7 8.37,-2.38 9.78,-2.91 16.07,-19.91 13.35,-32.56zm-153.49 25.21c-41.12,77.02 -186.77,21.15 -136.37,-83.7 14.06,7.57 40.33,25.35 53.31,36.45 -35.75,56.98 30.06,96.47 60.53,39.39l22.53 7.86zm193.42 -54.28c10.23,-9.6 26.41,-30.58 35.82,-45.92 -1.92,46.72 -9.73,100.89 -22.33,139.36 -11.43,-5.83 -19.18,-8.7 -30.03,-14.2 12.63,-16.12 31.61,-34.26 16.54,-79.23zm-784.57 1088.21c22.31,-17.72 48.9,-41.65 65.66,-60.99 112.77,-124.57 195,-119.59 301.92,-156.04 51.12,-13.46 138.29,-0.4 187.37,-0.75 -7.5,14.79 -8.82,10.4 -23.03,35.91 -25.99,37.94 2.63,51.21 31.98,65.44 36.46,17.69 210.78,116.59 256.42,120.96 18.48,-35.93 3.6,-74.15 -0.64,-86.43 36.76,0.14 98.27,22.19 149.86,-1.94 -2.12,-35.72 -43.4,-54.24 -67.43,-72.04 17.05,-7.37 57.94,-15.92 76.18,-45.8 -28.82,-41.19 -183.3,-53.1 -237.96,-57.87 13.73,-48.52 34.83,-110.41 12.33,-164.91l56.75 22c21.14,7.32 42.89,12.2 66.04,15.02 135.69,16.58 268.91,-44.68 314.41,-175.65 36.55,-105.21 12.47,-202.68 -65.51,-238.5 -93.47,-42.94 -177.8,53.74 -195.78,121.81 -53.02,-8.32 -123.89,-93.33 -139.4,-143.61 69.83,15.36 99.37,66.41 113.38,65.86 16.14,-6.25 30.29,-31.44 36.56,-53.42 13.56,-47.55 -12.9,-102.61 -46.28,-128.84 -12.28,-9.64 -40.46,-29.86 -54.82,-36.75 11.9,-61.09 35.45,-109.25 24.25,-196.97 -8.78,-68.82 -32.69,-117.47 -65.17,-160.87 -64.25,-85.88 -170.26,-142.8 -277.46,-168.02 -160.38,-37.73 -315.21,18.92 -416.46,119.26 -47.78,47.35 -111.38,141.23 -129.17,209.64 -226.31,-11.98 -441.22,164.95 -445.82,394.85 -0.65,32.67 5.9,54.05 6.88,81.05 0.52,14.2 -6.18,18.29 -10.74,32.34 -14.45,44.44 -9.65,151.85 40.55,161.57 38.13,7.38 22.23,-22.37 60.57,10.74 14.78,12.77 36.93,23.14 62.61,22.05 10.91,58.85 -6.93,98.09 78.71,209.57 18.5,24.09 50.79,51.04 81.37,70.65 33.52,21.5 62.3,33.15 99.51,47.43 -45.58,28.86 -112.68,76.15 -113.66,121.96 29.51,9.35 60.06,-3.94 90.06,-7.65 -7.39,17.77 -22.37,43.19 -18.09,64.18 32.56,7.03 71.74,-17.53 94.04,-35.25z"/>
    <path class="fil2" d="M8141.79 2388.48c98.18,0 177.77,79.59 177.77,177.77 0,98.19 -79.59,177.77 -177.77,177.77 -98.19,0 -177.77,-79.59 -177.77,-177.77 0,-98.18 79.59,-177.77 177.77,-177.77zm0 43.4c74.21,0 134.37,60.16 134.37,134.37 0,74.21 -60.16,134.37 -134.37,134.37 -74.21,0 -134.37,-60.16 -134.37,-134.37 0,-74.21 60.16,-134.37 134.37,-134.37z"/>
   </g>
   <g>
    <path class="fil4" d="M6754.88 2837.61c123.15,-22.54 222.32,79.62 234.35,184.3 7.27,63.27 -10.66,124.77 -39.46,165.39 -89.52,126.23 -256.74,128.92 -337.24,-4.59 -14.63,-24.26 -21.76,-49.94 -22.14,-84.42 -1.36,-123.24 41.53,-238.17 164.49,-260.67z"/>
    <circle class="fil4" cx="8141.79" cy="2566.25" r="134.37"/>
   </g>
  </g>
 </g>
</svg>
