<svg width="170" height="170" viewBox="0 0 170 170" fill="none" xmlns="http://www.w3.org/2000/svg">
<g filter="url(#filter0_d_4318_179)">
<path fill-rule="evenodd" clip-rule="evenodd" d="M84.5527 0C129.041 0 166 36.0121 166 80.5C166 124.988 129.041 161.105 84.5527 161.105C40.0649 161.105 4 125.04 4 80.5521C4 36.0643 40.0649 0 84.5527 0Z" fill="url(#paint0_radial_4318_179)"/>
</g>
<path fill-rule="evenodd" clip-rule="evenodd" d="M87 46C103.016 46 116 54.7304 116 65.4999C116 76.2695 103.016 85 87 85C70.9838 85 58 76.2695 58 65.4999C58 54.7304 70.9838 46 87 46Z" fill="#FEFEFE"/>
<path fill-rule="evenodd" clip-rule="evenodd" d="M105.115 98.0155C108.234 91.7752 108.193 85.8883 108.229 82.6658C108.266 79.4434 110.081 83.8737 111.581 85.5973C113.081 87.3222 116.442 90.7003 119.781 90.983C121.17 94.3434 127.89 98.6478 124.292 94.1173C123.872 93.5883 123.509 93.0411 123.139 92.5045C122.454 91.5089 122.394 89.2676 123.822 88.3481C126.288 89.7304 124.636 91.7532 125.878 94.2181C126.268 94.9908 127.056 95.7125 128.182 95.919C129.688 96.1955 130.052 95.9575 131.274 95.5273C131.878 95.1948 131.759 94.7263 131.359 94.5204C129.527 94.4442 129.077 94.9171 128.173 94.2137C127.27 93.5109 126.889 92.8446 127.508 91.5869C128.835 88.8878 132.598 90.4087 132.91 90.4452C132.489 89.4288 132.083 88.8664 131.011 88.4879C129.514 87.9608 128.49 88.7537 127.143 88.998C127.481 87.4979 128.881 86.7737 129.204 85.4053C127.983 85.1723 126.11 86.3934 124.869 86.2126C124.51 85.382 126.191 84.324 126.723 83.982C134.406 79.0498 139.385 91.1379 131.507 99.8286C130.571 100.86 128.033 102.413 126.064 103.187C119.101 105.923 110.627 102.956 105.115 98.0149V98.0155Z" fill="#024873"/>
<path fill-rule="evenodd" clip-rule="evenodd" d="M101.156 114.704C103.371 114.535 104.238 114.178 104.928 113.451C107.071 111.047 106.907 107.905 105.59 104.556C105.296 103.808 104.553 101.235 103.932 100.695C101.737 103.943 100.514 105.996 97.6453 108.814C96.2561 110.18 91.9999 113.538 90.4894 114.538C93.8927 114.901 98.9402 114.874 101.156 114.703V114.704Z" fill="#024873"/>
<path fill-rule="evenodd" clip-rule="evenodd" d="M61.8381 110.097C62.7345 111.867 66.3943 117.159 72.5486 117.274C68.6233 119.104 65.5731 119.357 61.768 119.92C57.9628 120.483 52.2824 118 48.9109 114.841C45.5394 111.681 42.7696 107.289 43.2343 102.134C43.6978 102.841 44.3463 103.532 45.1505 104.533C48.1806 108.309 54.3966 111.929 61.8381 110.098V110.097Z" fill="#024873"/>
<path fill-rule="evenodd" clip-rule="evenodd" d="M83.4901 78.267C83.5589 76.3997 85.2499 74.5867 86.4527 73.7403C92.0085 69.8282 95.8805 72.4795 99.9609 68.3577C102.09 66.2059 102.84 67.3054 107.939 69.5833C111.197 71.0386 115.124 72.6067 117.438 75.2328C118.475 76.4098 119.598 78.9943 118.169 80.5511C117.725 80.1839 117.124 79.5542 116.769 79.2903C113.624 76.9464 106.899 75.5867 103.081 74.9192C99.9992 74.3807 96.8496 73.9468 93.6722 74.0224C92.3039 74.0551 87.2966 74.4865 86.6669 76.1107C85.8529 78.2103 89.8333 76.5584 91.5795 76.362C93.3457 76.1623 95.3567 76.1762 97.0664 76.3506C98.8074 76.5276 106.112 77.4181 107.135 77.8557C106.704 80.2746 104.183 79.056 102.109 78.6618C91.005 76.5509 85.6588 80.3389 83.4888 78.267H83.4901Z" fill="#F2B705"/>
<path fill-rule="evenodd" clip-rule="evenodd" d="M99.748 117.608C98.4335 118.617 97.5104 120.282 96.9431 121.349C99.5299 122.723 102.905 124.057 104.907 125.176C106.909 126.295 110.153 127.802 111.011 128.194C110.784 126.807 110.715 125.797 110.063 124.004C112.002 123.599 116.338 124.442 118.63 124.441C117.69 123.428 114.789 121.995 113.572 121.195C114.717 120.852 117.94 119.678 118.552 118.947C116.422 117.702 102.794 117.208 99.7486 117.608L99.748 117.608Z" fill="#F2B705"/>
<path fill-rule="evenodd" clip-rule="evenodd" d="M57.291 130.589C57.5487 128.967 57.9246 127.77 58.5808 126.116C57.3936 126.181 56.4472 126.924 54.7361 127.084C55.16 126.152 58.2725 124.232 59.2767 123.531C61.7998 121.894 62.1224 122.28 66.7221 121.723C64.234 123.55 58.7496 129.554 57.2917 130.59L57.291 130.589Z" fill="#F2B705"/>
<path fill-rule="evenodd" clip-rule="evenodd" d="M57.291 130.589C57.5487 128.967 57.9245 127.77 58.5807 126.116C57.3935 126.181 56.4464 126.923 54.736 127.084C55.1599 126.152 58.2724 124.232 59.2766 123.531C61.7997 121.894 62.1224 122.28 66.722 121.723C64.2339 123.55 58.7489 129.553 57.291 130.589ZM61.8374 110.097C62.7338 111.868 66.3936 117.159 72.5479 117.274C68.6226 119.104 65.5724 119.357 61.7673 119.92C57.9622 120.484 52.2817 118 48.9102 114.841C45.5386 111.681 42.7689 107.289 43.2336 102.134C43.6971 102.841 44.3456 103.532 45.1498 104.533C48.1799 108.309 54.3959 111.928 61.8374 110.097ZM76.9222 115.51C73.2223 115.377 66.7337 114.796 64.143 109.313C69.6086 106.775 73.306 100.258 73.9824 96.1231C74.6581 91.9881 74.3044 84.6105 67.5633 79.4849C60.8215 74.36 52.503 76.8551 50.0338 78.1857L48.5519 74.5905C48.0936 73.8448 47.2562 72.2541 46.1333 72.3466C46.1462 72.9569 47.0076 75.7838 47.0401 78.3079C47.0816 81.5197 44.8792 80.4466 43.638 82.0726C43.762 83.0985 44.2404 83.2181 45.0356 83.8032C45.0369 85.7006 42.7085 88.4426 42.5644 94.5991C42.5462 95.3863 42.5728 96.1609 42.6306 96.9455C42.6949 97.8253 42.8877 99.6503 40.7358 98.3883C39.2124 97.4947 39.2376 94.7691 38.4282 93.2974C37.5954 94.2445 37.6687 95.5834 37.7505 97.0602C37.781 97.6156 37.8323 97.8259 37.5623 98.3008C35.0989 98.3108 34.2466 93.5486 33.5845 93.104C33.2891 93.4598 33.3294 93.5329 33.2852 93.8704C33.1535 94.8472 33.7805 96.4663 32.9594 97.1937C31.6073 96.6766 31.0906 93.3496 31.0711 92.0593C31.0523 90.7689 31.4768 89.9439 31.8338 89.0339C32.4784 87.3884 32.6121 88.1038 32.3382 86.1307C31.9383 83.2553 32.011 81.7565 32.5621 78.9736C35.3092 65.1013 48.6479 59.8825 60.1451 60.2956L61.8263 56.279C64.2917 50.3996 69.4567 44.5668 75.1398 41.7953C85.5906 36.698 96.3796 38.9507 105.259 45.2041C106.558 46.1198 107.253 46.5411 108.201 47.5449C108.986 48.3756 110.138 49.7019 110.865 50.882C111.592 52.0622 112.576 53.3236 112.809 55.3961C113.043 57.468 111.439 59.737 110.516 60.7881C109.593 61.8385 107.509 63.5647 105.866 64.282C105.646 63.5458 105.881 63.4312 106.572 62.3889C106.003 62.5394 105.63 62.8115 105.068 62.9482C104.774 62.2794 104.652 61.3643 104.342 60.7314C103.965 59.9625 103.839 59.3988 102.896 59.3L103.056 63.1516C102.783 63.2574 102.137 63.343 101.428 63.1238C102.179 63.6679 102.599 64.1403 102.605 64.8393C101.615 65.0068 101.2 65.1057 99.9971 64.7096C97.8726 64.0105 92.4304 60.1823 90.398 58.7489C89.7041 58.259 89.129 57.9687 88.4487 57.5297C85.5367 55.6518 86.2216 57.9561 86.5688 58.5827C86.9901 59.3441 87.0213 59.0021 87.4334 59.6684C85.0447 63.4463 86.7161 66.8388 89.9306 69.3981C80.4327 72.6798 79.8063 79.2217 82.615 80.7986C84.4163 81.8094 89.7612 80.5435 92.1129 80.3124C97.7479 79.7582 98.7197 80.7167 102.116 80.8565L105.119 81.3106L105.277 83.1709L105.099 85.4701C104.573 95.7717 98.0751 103.89 94.4491 107.049C90.8231 110.208 88.6674 112.388 86.7623 113.294C84.3404 114.446 80.6235 115.644 76.9242 115.51H76.9222ZM101.155 114.704C103.371 114.535 104.237 114.178 104.927 113.451C107.071 111.047 106.906 107.906 105.589 104.556C105.295 103.808 104.552 101.235 103.931 100.695C101.736 103.943 100.514 105.996 97.6447 108.814C96.2556 110.18 91.9993 113.538 90.4888 114.538C93.8922 114.901 98.9397 114.875 101.155 114.704ZM99.7472 117.608C98.4327 118.617 97.5097 120.282 96.9424 121.349C99.5291 122.723 102.905 124.057 104.906 125.176C106.908 126.295 110.153 127.802 111.011 128.194C110.783 126.806 110.714 125.797 110.062 124.004C112.001 123.599 116.337 124.442 118.629 124.441C117.689 123.428 114.789 121.995 113.571 121.195C114.716 120.852 117.939 119.678 118.552 118.947C116.421 117.702 102.793 117.207 99.7472 117.608ZM55.9706 79.6676C63.9645 78.2481 70.4019 84.6817 71.1827 91.2739C71.6547 95.2584 70.4908 99.1314 68.6213 101.689C62.8104 109.639 51.9558 109.808 46.7298 101.4C45.7801 99.8726 45.3173 98.2554 45.2933 96.084C45.205 88.3229 47.9891 81.0845 55.9706 79.6676ZM105.114 98.0155C108.233 91.7752 108.192 85.8876 108.228 82.6658C108.264 79.4434 110.08 83.8737 111.579 85.5973C113.079 87.3222 116.441 90.7002 119.78 90.983C121.169 94.3434 127.888 98.6478 124.29 94.1173C123.87 93.5883 123.508 93.041 123.138 92.5045C122.453 91.5089 122.392 89.2675 123.82 88.3481C126.287 89.7304 124.634 91.7532 125.877 94.2181C126.267 94.9908 127.054 95.7125 128.181 95.919C129.687 96.1955 130.051 95.9574 131.272 95.5273C131.877 95.1948 131.758 94.7263 131.357 94.5203C129.526 94.4441 129.076 94.9171 128.172 94.2137C127.269 93.5109 126.888 92.8446 127.507 91.5869C128.834 88.8878 132.597 90.4087 132.909 90.4452C132.487 89.4288 132.082 88.8664 131.009 88.4879C129.513 87.9608 128.489 88.7537 127.142 88.998C127.48 87.4979 128.88 86.7737 129.202 85.4053C127.981 85.1729 126.109 86.3933 124.867 86.2126C124.508 85.382 126.189 84.3233 126.721 83.982C134.404 79.0498 139.383 91.1379 131.505 99.8286C130.569 100.86 128.031 102.413 126.062 103.187C119.099 105.923 110.626 102.957 105.114 98.0155ZM83.4887 78.267C83.5576 76.3997 85.2485 74.5867 86.4513 73.7403C92.0071 69.8282 95.8791 72.4795 99.9595 68.3578C102.089 66.2059 102.84 67.3054 107.938 69.5833C111.196 71.0386 115.123 72.6067 117.437 75.2328C118.474 76.4098 119.597 78.9943 118.167 80.5511C117.723 80.1839 117.122 79.5548 116.768 79.2903C113.622 76.9464 106.897 75.5867 103.079 74.9192C99.9978 74.3801 96.8483 73.9468 93.6708 74.0224C92.3025 74.0552 87.2952 74.4865 86.6655 76.1107C85.8515 78.2103 89.8319 76.5584 91.5781 76.362C93.3443 76.1623 95.3553 76.1762 97.0651 76.3506C98.806 76.5276 106.111 77.4181 107.134 77.8557C106.702 80.2746 104.182 79.056 102.107 78.6618C91.0036 76.5509 85.6575 80.3389 83.4874 78.267H83.4887ZM108.337 64.6548C108.828 64.3638 109.176 64.236 109.748 63.7196C109.933 65.9502 109.059 67.352 106.927 66.8545C107.185 66.8035 107.163 66.8104 107.47 66.7046C108.105 66.5214 108.514 65.4514 108.337 64.6548ZM98.3737 66.2424C95.7045 71.0928 86.2501 67.5743 89.5217 60.9713C90.4343 61.4481 92.1396 62.5678 92.9821 63.2668C90.6615 66.8551 94.9333 69.3421 96.9112 65.7474L98.3737 66.2424ZM110.929 62.8241C111.593 62.2195 112.643 60.8983 113.254 59.9322C113.129 62.8745 112.622 66.2859 111.805 68.7085C111.063 68.3414 110.56 68.1606 109.855 67.8143C110.675 66.7991 111.907 65.6561 110.929 62.8241ZM60.001 131.355C61.4492 130.239 63.1752 128.732 64.2631 127.514C71.5832 119.669 76.9209 119.983 83.8613 117.687C87.1796 116.84 92.838 117.662 96.0239 117.64C95.537 118.571 95.4514 118.295 94.529 119.901C92.8419 122.291 94.6997 123.126 96.6048 124.023C98.9715 125.137 110.287 131.365 113.25 131.64C114.449 129.377 113.483 126.97 113.208 126.197C115.594 126.206 119.587 127.595 122.936 126.075C122.798 123.825 120.119 122.659 118.559 121.538C119.665 121.074 122.32 120.536 123.504 118.654C121.633 116.06 111.605 115.31 108.057 115.009C108.948 111.954 110.318 108.056 108.858 104.624L112.541 106.01C113.914 106.471 115.325 106.778 116.828 106.956C125.636 108 134.284 104.142 137.237 95.8938C139.61 89.2682 138.047 83.1299 132.985 80.8742C126.917 78.17 121.443 84.2585 120.276 88.5452C116.835 88.0213 112.234 82.6677 111.228 79.5013C115.76 80.4686 117.678 83.6835 118.587 83.6489C119.635 83.2553 120.553 81.6689 120.96 80.2847C121.841 77.2902 120.123 73.8228 117.956 72.1709C117.159 71.5638 116.904 70.9339 115.972 70.5C116.744 66.6528 116.699 62.9765 115.972 57.4523C115.402 53.1183 113.85 50.0545 111.742 47.3214C107.571 41.913 100.69 38.3284 93.7312 36.7402C83.3206 34.3641 73.2703 37.9317 66.698 44.2507C63.5965 47.2326 59.4681 53.1447 58.3133 57.4529C43.6231 56.6985 29.6729 67.8407 29.3743 82.3188C29.3321 84.3762 29.7573 85.7227 29.8209 87.423C29.8546 88.3173 29.4197 88.5748 29.1237 89.4596C28.1858 92.2583 28.4973 99.0225 31.7559 99.6346C34.231 100.099 33.1989 98.2258 35.6876 100.311C36.647 101.115 38.0848 101.768 39.7518 101.7C40.4599 105.406 39.3019 107.877 44.861 114.897C46.0618 116.414 48.1579 118.112 50.1429 119.347C52.3187 120.701 54.1869 121.434 56.6022 122.334C53.6435 124.151 49.288 127.129 49.2244 130.014C51.1399 130.603 53.123 129.766 55.0703 129.532C54.5906 130.651 53.6182 132.252 53.8961 133.574C56.0096 134.017 58.5535 132.471 60.001 131.355Z" fill="#002C47"/>
<path fill-rule="evenodd" clip-rule="evenodd" d="M145.999 51.3833C152.372 51.3833 157.538 56.3955 157.538 62.5785C157.538 68.7621 152.372 73.7737 145.999 73.7737C139.625 73.7737 134.46 68.7614 134.46 62.5785C134.46 56.3955 139.626 51.3833 145.999 51.3833ZM145.999 54.1164C150.816 54.1164 154.721 57.9051 154.721 62.5785C154.721 67.2519 150.816 71.0405 145.999 71.0405C141.182 71.0405 137.277 67.2519 137.277 62.5785C137.277 57.9051 141.182 54.1164 145.999 54.1164Z" fill="#002C47"/>
<path fill-rule="evenodd" clip-rule="evenodd" d="M55.9718 79.6676C63.9657 78.2481 70.403 84.6817 71.1839 91.2739C71.6558 95.2584 70.4919 99.1314 68.6225 101.689C62.8116 109.639 51.957 109.808 46.7316 101.4C45.7819 99.8726 45.3191 98.2554 45.2944 96.084C45.2062 88.3229 47.9902 81.0851 55.9718 79.6682V79.6676Z" fill="#E03C00"/>
<path fill-rule="evenodd" clip-rule="evenodd" d="M135.488 57.951C131.513 58.4624 125.679 59.9272 121.904 61.0318L134.674 60.4172C134.848 59.5563 135.123 58.7294 135.488 57.9504V57.951Z" fill="#E03C00"/>
<path fill-rule="evenodd" clip-rule="evenodd" d="M135.138 66.3702C132.037 66.7562 127.004 67.2323 122.57 68.0088L136.729 69.2476C136.063 68.3772 135.524 67.4093 135.139 66.3708L135.138 66.3702Z" fill="#E03C00"/>
<path fill-rule="evenodd" clip-rule="evenodd" d="M134.472 62.0627C132.346 62.326 123.872 63.5842 120.422 64.6938L134.618 64.4363C134.513 63.8317 134.459 63.2114 134.459 62.5791C134.459 62.4059 134.463 62.234 134.472 62.0627Z" fill="#E03C00"/>
<path d="M145.999 71.0405C150.816 71.0405 154.721 67.2519 154.721 62.5785C154.721 57.905 150.816 54.1164 145.999 54.1164C141.182 54.1164 137.277 57.905 137.277 62.5785C137.277 67.2519 141.182 71.0405 145.999 71.0405Z" fill="#E03C00"/>
<path fill-rule="evenodd" clip-rule="evenodd" d="M25.4613 78.9213C25.1069 77.0093 24.9498 75.0344 25.0141 73.0154C25.4535 59.2401 35.9848 48.0764 49.5138 45.9869C38.5579 50.7044 28.9854 58.6702 25.4613 78.9213Z" fill="#E03C00"/>
<path fill-rule="evenodd" clip-rule="evenodd" d="M44.8621 55.4559C45.9877 55.6303 47.0282 56.0063 47.9513 56.5397C41.9489 56.7098 37.2467 59.6016 34.8689 65.2694C34.7099 64.3739 34.6969 63.4381 34.8534 62.4903C35.6148 57.8666 40.0957 54.7172 44.8621 55.4559Z" fill="#E03C00"/>
<path fill-rule="evenodd" clip-rule="evenodd" d="M73.8661 96.7295C73.9116 96.5223 73.9512 96.3196 73.983 96.1231C74.6587 91.9881 74.305 84.6105 67.5639 79.4849C60.8228 74.36 52.5037 76.8551 50.0344 78.1857L48.5525 74.5904C48.0942 73.8448 47.2568 72.2541 46.1338 72.3466C46.1468 72.9562 47.0082 75.7838 47.0407 78.3079C47.0822 81.5197 44.8797 80.4466 43.6386 82.0726C43.7626 83.0985 44.241 83.2181 45.0355 83.8032C45.0368 85.7006 42.7091 88.4426 42.5643 94.5991C42.5462 95.3863 42.5728 96.1609 42.6306 96.9455C42.6955 97.8253 42.8876 99.6503 40.7358 98.3883C39.2123 97.4947 39.2376 94.7691 38.4281 93.2974C37.5953 94.2445 37.6687 95.5834 37.7505 97.0602C37.781 97.6156 37.8323 97.8259 37.5622 98.3014C35.0995 98.3115 34.2465 93.5486 33.5844 93.1047C33.2891 93.4605 33.3293 93.5335 33.2852 93.8711C33.1534 94.8478 33.7805 96.4669 32.9593 97.1943C31.6072 96.6773 31.0899 93.3503 31.071 92.0599C31.0522 90.7695 31.4774 89.9445 31.8338 89.0345C32.4783 87.389 32.612 88.1044 32.3381 86.1314C31.9383 83.2559 32.011 81.7571 32.5621 78.9742C35.3091 65.1019 48.6479 59.8831 60.1451 60.2962L61.8263 56.2797C64.2916 50.4003 69.4567 44.5674 75.1397 41.7959C85.5905 36.6986 96.3795 38.9513 105.259 45.2054C106.558 46.1211 107.253 46.5417 108.201 47.5456C108.986 48.3762 110.138 49.7025 110.865 50.8826C111.592 52.0628 112.576 53.3242 112.809 55.3967C113.043 57.4686 111.439 59.7377 110.516 60.7887C109.593 61.8392 107.509 63.5653 105.866 64.2826C105.646 63.5464 105.881 63.4318 106.573 62.3896C106.003 62.5401 105.63 62.8121 105.068 62.9488C104.774 62.28 104.652 61.3649 104.342 60.732C103.964 59.9631 103.839 59.3995 102.896 59.3006L103.056 63.1522C102.783 63.258 102.137 63.3436 101.428 63.1245L101.574 63.2328L101.4 63.1119C101.24 62.9185 101.311 62.4771 101.156 62.2604C99.4122 59.8334 95.9427 56.558 93.6279 54.6391C90.3311 51.906 87.079 49.6143 81.2129 49.8971L81.8691 50.1981C84.402 51.1969 83.3907 51.0306 85.1277 51.9986C84.7103 52.326 84.1618 52.3197 83.5919 52.4488C82.3982 52.7203 81.1265 53.4363 80.3255 54.2159C77.5927 56.8754 77.0111 61.3996 77.7537 65.1945C78.2678 67.8244 79.1701 68.9724 79.5271 70.3264C78.0023 70.9032 76.4075 72.6949 75.5487 73.7371C69.9156 80.5719 76.3172 91.8023 92.5316 86.4538C97.535 84.8038 100.827 81.7401 101.926 80.8477L102.116 80.8565L105.119 81.3106L105.276 83.1709L105.233 83.7263C104.652 84.5702 104.073 85.3234 103.844 85.5759C97.816 93.0033 84.8616 101.81 73.8668 96.7302L73.8661 96.7295Z" fill="#024873"/>
<defs>
<filter id="filter0_d_4318_179" x="0" y="0" width="170" height="169.105" filterUnits="userSpaceOnUse" color-interpolation-filters="sRGB">
<feFlood flood-opacity="0" result="BackgroundImageFix"/>
<feColorMatrix in="SourceAlpha" type="matrix" values="0 0 0 0 0 0 0 0 0 0 0 0 0 0 0 0 0 0 127 0" result="hardAlpha"/>
<feOffset dy="4"/>
<feGaussianBlur stdDeviation="2"/>
<feComposite in2="hardAlpha" operator="out"/>
<feColorMatrix type="matrix" values="0 0 0 0 0 0 0 0 0 0 0 0 0 0 0 0 0 0 0.5 0"/>
<feBlend mode="normal" in2="BackgroundImageFix" result="effect1_dropShadow_4318_179"/>
<feBlend mode="normal" in="SourceGraphic" in2="effect1_dropShadow_4318_179" result="shape"/>
</filter>
<radialGradient id="paint0_radial_4318_179" cx="0" cy="0" r="1" gradientUnits="userSpaceOnUse" gradientTransform="translate(85 80.5524) rotate(90) scale(80.5524 81)">
<stop offset="0.783654" stop-color="#024873"/>
<stop offset="1" stop-color="#29688F"/>
</radialGradient>
</defs>
</svg>
