<svg width="170" height="170" viewBox="0 0 170 170" fill="none" xmlns="http://www.w3.org/2000/svg">
<g filter="url(#filter0_d_4318_179)">
<path fill-rule="evenodd" clip-rule="evenodd" d="M84.5527 0C129.041 0 166 36.0121 166 80.5C166 124.988 129.041 161.105 84.5527 161.105C40.0649 161.105 4 125.04 4 80.5521C4 36.0643 40.0649 0 84.5527 0Z" fill="#024873"/>
</g>
<path fill-rule="evenodd" clip-rule="evenodd" d="M94 35C110.016 35 123 43.7304 123 54.4999C123 65.2695 110.016 74 94 74C77.9838 74 65 65.2695 65 54.4999C65 43.7304 77.9838 35 94 35Z" fill="#FEFEFE"/>
<path fill-rule="evenodd" clip-rule="evenodd" d="M112.115 87.0155C115.234 80.7752 115.193 74.8883 115.229 71.6658C115.266 68.4434 117.081 72.8737 118.581 74.5973C120.081 76.3222 123.442 79.7003 126.781 79.983C128.17 83.3434 134.89 87.6478 131.292 83.1173C130.872 82.5883 130.509 82.0411 130.139 81.5045C129.454 80.5089 129.394 78.2676 130.822 77.3481C133.288 78.7304 131.636 80.7532 132.878 83.2181C133.268 83.9908 134.056 84.7125 135.182 84.919C136.688 85.1955 137.052 84.9575 138.274 84.5273C138.878 84.1948 138.759 83.7263 138.359 83.5204C136.527 83.4442 136.077 83.9171 135.173 83.2137C134.27 82.5109 133.889 81.8446 134.508 80.5869C135.835 77.8878 139.598 79.4087 139.91 79.4452C139.489 78.4288 139.083 77.8664 138.011 77.4879C136.514 76.9608 135.49 77.7537 134.143 77.998C134.481 76.4979 135.881 75.7737 136.204 74.4053C134.983 74.1723 133.11 75.3934 131.869 75.2126C131.51 74.382 133.191 73.324 133.723 72.982C141.406 68.0498 146.385 80.1379 138.507 88.8286C137.571 89.8601 135.033 91.4131 133.064 92.1871C126.101 94.9227 117.627 91.9559 112.115 87.0149V87.0155Z" fill="#024873"/>
<path fill-rule="evenodd" clip-rule="evenodd" d="M108.156 103.704C110.371 103.535 111.238 103.178 111.928 102.451C114.071 100.047 113.907 96.9052 112.59 93.5561C112.296 92.808 111.553 90.2354 110.932 89.6951C108.737 92.9434 107.514 94.9958 104.645 97.8139C103.256 99.1799 98.9999 102.538 97.4894 103.538C100.893 103.901 105.94 103.874 108.156 103.703V103.704Z" fill="#024873"/>
<path fill-rule="evenodd" clip-rule="evenodd" d="M68.8381 99.0974C69.7345 100.867 73.3943 106.159 79.5486 106.274C75.6233 108.104 72.5731 108.357 68.768 108.92C64.9628 109.483 59.2824 107 55.9109 103.841C52.5394 100.681 49.7696 96.2886 50.2343 91.1341C50.6978 91.8413 51.3463 92.5315 52.1505 93.5335C55.1806 97.3088 61.3966 100.929 68.8381 99.098V99.0974Z" fill="#024873"/>
<path fill-rule="evenodd" clip-rule="evenodd" d="M90.4901 67.267C90.5589 65.3997 92.2499 63.5867 93.4527 62.7403C99.0085 58.8282 102.88 61.4795 106.961 57.3577C109.09 55.2059 109.84 56.3054 114.939 58.5833C118.197 60.0386 122.124 61.6067 124.438 64.2328C125.475 65.4098 126.598 67.9943 125.169 69.5511C124.725 69.1839 124.124 68.5542 123.769 68.2903C120.624 65.9464 113.899 64.5867 110.081 63.9192C106.999 63.3807 103.85 62.9468 100.672 63.0224C99.3039 63.0551 94.2966 63.4865 93.6669 65.1107C92.8529 67.2103 96.8333 65.5584 98.5795 65.362C100.346 65.1623 102.357 65.1762 104.066 65.3506C105.807 65.5276 113.112 66.4181 114.135 66.8557C113.704 69.2746 111.183 68.056 109.109 67.6618C98.005 65.5509 92.6588 69.3389 90.4888 67.267H90.4901Z" fill="#F2B705"/>
<path fill-rule="evenodd" clip-rule="evenodd" d="M106.748 106.608C105.433 107.617 104.51 109.282 103.943 110.349C106.53 111.723 109.905 113.057 111.907 114.176C113.909 115.295 117.153 116.802 118.011 117.194C117.784 115.807 117.715 114.797 117.063 113.004C119.002 112.599 123.338 113.442 125.63 113.441C124.69 112.428 121.789 110.995 120.572 110.195C121.717 109.852 124.94 108.678 125.552 107.947C123.422 106.702 109.794 106.208 106.749 106.608L106.748 106.608Z" fill="#F2B705"/>
<path fill-rule="evenodd" clip-rule="evenodd" d="M64.291 119.589C64.5487 117.967 64.9246 116.77 65.5808 115.116C64.3936 115.181 63.4472 115.924 61.7361 116.084C62.16 115.152 65.2725 113.232 66.2767 112.531C68.7998 110.894 69.1224 111.28 73.7221 110.723C71.234 112.55 65.7496 118.554 64.2917 119.59L64.291 119.589Z" fill="#F2B705"/>
<path fill-rule="evenodd" clip-rule="evenodd" d="M64.291 119.589C64.5487 117.967 64.9245 116.77 65.5807 115.116C64.3935 115.181 63.4464 115.923 61.736 116.084C62.1599 115.152 65.2724 113.232 66.2766 112.531C68.7997 110.894 69.1224 111.28 73.722 110.723C71.2339 112.55 65.7489 118.553 64.291 119.589ZM68.8374 99.0974C69.7338 100.868 73.3936 106.159 79.5479 106.274C75.6226 108.104 72.5724 108.357 68.7673 108.92C64.9622 109.484 59.2817 107 55.9102 103.841C52.5386 100.681 49.7689 96.2887 50.2336 91.1341C50.6971 91.8413 51.3456 92.5315 52.1498 93.5335C55.1799 97.3089 61.3959 100.928 68.8374 99.0974ZM83.9222 104.51C80.2223 104.377 73.7337 103.796 71.143 98.3127C76.6086 95.7748 80.306 89.2581 80.9824 85.1231C81.6581 80.9881 81.3044 73.6105 74.5633 68.4849C67.8215 63.36 59.503 65.8551 57.0338 67.1857L55.5519 63.5905C55.0936 62.8448 54.2562 61.2541 53.1333 61.3466C53.1462 61.9569 54.0076 64.7838 54.0401 67.3079C54.0816 70.5197 51.8792 69.4466 50.638 71.0726C50.762 72.0985 51.2404 72.2181 52.0356 72.8032C52.0369 74.7006 49.7085 77.4426 49.5644 83.5991C49.5462 84.3863 49.5728 85.1609 49.6306 85.9455C49.6949 86.8253 49.8877 88.6503 47.7358 87.3883C46.2124 86.4947 46.2376 83.7691 45.4282 82.2974C44.5954 83.2445 44.6687 84.5834 44.7505 86.0602C44.781 86.6156 44.8323 86.8259 44.5623 87.3008C42.0989 87.3108 41.2466 82.5486 40.5845 82.104C40.2891 82.4598 40.3294 82.5329 40.2852 82.8704C40.1535 83.8472 40.7805 85.4663 39.9594 86.1937C38.6073 85.6766 38.0906 82.3496 38.0711 81.0593C38.0523 79.7689 38.4768 78.9439 38.8338 78.0339C39.4784 76.3884 39.6121 77.1038 39.3382 75.1307C38.9383 72.2553 39.011 70.7565 39.5621 67.9736C42.3092 54.1013 55.6479 48.8825 67.1451 49.2956L68.8263 45.279C71.2917 39.3996 76.4567 33.5668 82.1398 30.7953C92.5906 25.698 103.38 27.9507 112.259 34.2041C113.558 35.1198 114.253 35.5411 115.201 36.5449C115.986 37.3756 117.138 38.7019 117.865 39.882C118.592 41.0622 119.576 42.3236 119.809 44.3961C120.043 46.468 118.439 48.737 117.516 49.7881C116.593 50.8385 114.509 52.5647 112.866 53.282C112.646 52.5458 112.881 52.4312 113.572 51.3889C113.003 51.5394 112.63 51.8115 112.068 51.9482C111.774 51.2794 111.652 50.3643 111.342 49.7314C110.965 48.9625 110.839 48.3988 109.896 48.3L110.056 52.1516C109.783 52.2574 109.137 52.343 108.428 52.1238C109.179 52.6679 109.599 53.1403 109.605 53.8393C108.615 54.0068 108.2 54.1057 106.997 53.7096C104.873 53.0105 99.4304 49.1823 97.398 47.7489C96.7041 47.259 96.129 46.9687 95.4487 46.5297C92.5367 44.6518 93.2216 46.9561 93.5688 47.5827C93.9901 48.3441 94.0213 48.0021 94.4334 48.6684C92.0447 52.4463 93.7161 55.8388 96.9306 58.3981C87.4327 61.6798 86.8063 68.2217 89.615 69.7986C91.4163 70.8094 96.7612 69.5435 99.1129 69.3124C104.748 68.7582 105.72 69.7167 109.116 69.8565L112.119 70.3106L112.277 72.1709L112.099 74.4701C111.573 84.7717 105.075 92.8905 101.449 96.0493C97.8231 99.2082 95.6674 101.388 93.7623 102.294C91.3404 103.446 87.6235 104.644 83.9242 104.51H83.9222ZM108.155 103.704C110.371 103.535 111.237 103.178 111.927 102.451C114.071 100.047 113.906 96.9058 112.589 93.5561C112.295 92.808 111.552 90.2354 110.931 89.6951C108.736 92.9434 107.514 94.9958 104.645 97.8139C103.256 99.1799 98.9993 102.538 97.4888 103.538C100.892 103.901 105.94 103.875 108.155 103.704ZM106.747 106.608C105.433 107.617 104.51 109.282 103.942 110.349C106.529 111.723 109.905 113.057 111.906 114.176C113.908 115.295 117.153 116.802 118.011 117.194C117.783 115.806 117.714 114.797 117.062 113.004C119.001 112.599 123.337 113.442 125.629 113.441C124.689 112.428 121.789 110.995 120.571 110.195C121.716 109.852 124.939 108.678 125.552 107.947C123.421 106.702 109.793 106.207 106.747 106.608ZM62.9706 68.6676C70.9645 67.2481 77.4019 73.6817 78.1827 80.2739C78.6547 84.2584 77.4908 88.1314 75.6213 90.6895C69.8104 98.6389 58.9558 98.8083 53.7298 90.4004C52.7801 88.8726 52.3173 87.2554 52.2933 85.084C52.205 77.3229 54.9891 70.0845 62.9706 68.6676ZM112.114 87.0155C115.233 80.7752 115.192 74.8876 115.228 71.6658C115.264 68.4434 117.08 72.8737 118.579 74.5973C120.079 76.3222 123.441 79.7002 126.78 79.983C128.169 83.3434 134.888 87.6478 131.29 83.1173C130.87 82.5883 130.508 82.041 130.138 81.5045C129.453 80.5089 129.392 78.2675 130.82 77.3481C133.287 78.7304 131.634 80.7532 132.877 83.2181C133.267 83.9908 134.054 84.7125 135.181 84.919C136.687 85.1955 137.051 84.9574 138.272 84.5273C138.877 84.1948 138.758 83.7263 138.357 83.5203C136.526 83.4441 136.076 83.9171 135.172 83.2137C134.269 82.5109 133.888 81.8446 134.507 80.5869C135.834 77.8878 139.597 79.4087 139.909 79.4452C139.487 78.4288 139.082 77.8664 138.009 77.4879C136.513 76.9608 135.489 77.7537 134.142 77.998C134.48 76.4979 135.88 75.7737 136.202 74.4053C134.981 74.1729 133.109 75.3933 131.867 75.2126C131.508 74.382 133.189 73.3233 133.721 72.982C141.404 68.0498 146.383 80.1379 138.505 88.8286C137.569 89.8601 135.031 91.4131 133.062 92.1871C126.099 94.9227 117.626 91.9566 112.114 87.0155ZM90.4887 67.267C90.5576 65.3997 92.2485 63.5867 93.4513 62.7403C99.0071 58.8282 102.879 61.4795 106.959 57.3578C109.089 55.2059 109.84 56.3054 114.938 58.5833C118.196 60.0386 122.123 61.6067 124.437 64.2328C125.474 65.4098 126.597 67.9943 125.167 69.5511C124.723 69.1839 124.122 68.5548 123.768 68.2903C120.622 65.9464 113.897 64.5867 110.079 63.9192C106.998 63.3801 103.848 62.9468 100.671 63.0224C99.3025 63.0552 94.2952 63.4865 93.6655 65.1107C92.8515 67.2103 96.8319 65.5584 98.5781 65.362C100.344 65.1623 102.355 65.1762 104.065 65.3506C105.806 65.5276 113.111 66.4181 114.134 66.8557C113.702 69.2746 111.182 68.056 109.107 67.6618C98.0036 65.5509 92.6575 69.3389 90.4874 67.267H90.4887ZM115.337 53.6548C115.828 53.3638 116.176 53.236 116.748 52.7196C116.933 54.9502 116.059 56.352 113.927 55.8545C114.185 55.8035 114.163 55.8104 114.47 55.7046C115.105 55.5214 115.514 54.4514 115.337 53.6548ZM105.374 55.2424C102.705 60.0928 93.2501 56.5743 96.5217 49.9713C97.4343 50.4481 99.1396 51.5678 99.9821 52.2668C97.6615 55.8551 101.933 58.3421 103.911 54.7474L105.374 55.2424ZM117.929 51.8241C118.593 51.2195 119.643 49.8983 120.254 48.9322C120.129 51.8745 119.622 55.2859 118.805 57.7085C118.063 57.3414 117.56 57.1606 116.855 56.8143C117.675 55.7991 118.907 54.6561 117.929 51.8241ZM67.001 120.355C68.4492 119.239 70.1752 117.732 71.2631 116.514C78.5832 108.669 83.9209 108.983 90.8613 106.687C94.1796 105.84 99.838 106.662 103.024 106.64C102.537 107.571 102.451 107.295 101.529 108.901C99.8419 111.291 101.7 112.126 103.605 113.023C105.972 114.137 117.287 120.365 120.25 120.64C121.449 118.377 120.483 115.97 120.208 115.197C122.594 115.206 126.587 116.595 129.936 115.075C129.798 112.825 127.119 111.659 125.559 110.538C126.665 110.074 129.32 109.536 130.504 107.654C128.633 105.06 118.605 104.31 115.057 104.009C115.948 100.954 117.318 97.0563 115.858 93.6241L119.541 95.0096C120.914 95.4706 122.325 95.7779 123.828 95.9555C132.636 96.9996 141.284 93.1418 144.237 84.8938C146.61 78.2682 145.047 72.1299 139.985 69.8742C133.917 67.17 128.443 73.2585 127.276 77.5452C123.835 77.0213 119.234 71.6677 118.228 68.5013C122.76 69.4686 124.678 72.6835 125.587 72.6489C126.635 72.2553 127.553 70.6689 127.96 69.2847C128.841 66.2902 127.123 62.8228 124.956 61.1709C124.159 60.5638 123.904 59.9339 122.972 59.5C123.744 55.6528 123.699 51.9765 122.972 46.4523C122.402 42.1183 120.85 39.0545 118.742 36.3214C114.571 30.913 107.69 27.3284 100.731 25.7402C90.3206 23.3641 80.2703 26.9317 73.698 33.2507C70.5965 36.2326 66.4681 42.1447 65.3133 46.4529C50.6231 45.6985 36.6729 56.8407 36.3743 71.3188C36.3321 73.3762 36.7573 74.7227 36.8209 76.423C36.8546 77.3173 36.4197 77.5748 36.1237 78.4596C35.1858 81.2583 35.4973 88.0225 38.7559 88.6346C41.231 89.0994 40.1989 87.2258 42.6876 89.311C43.647 90.1152 45.0848 90.7682 46.7518 90.6996C47.4599 94.4057 46.3019 96.8768 51.861 103.897C53.0618 105.414 55.1579 107.112 57.1429 108.347C59.3187 109.701 61.1869 110.434 63.6022 111.334C60.6435 113.151 56.288 116.129 56.2244 119.014C58.1399 119.603 60.123 118.766 62.0703 118.532C61.5906 119.651 60.6182 121.252 60.8961 122.574C63.0096 123.017 65.5535 121.471 67.001 120.355Z" fill="#002C47"/>
<path fill-rule="evenodd" clip-rule="evenodd" d="M152.999 40.3833C159.372 40.3833 164.538 45.3955 164.538 51.5785C164.538 57.7621 159.372 62.7737 152.999 62.7737C146.625 62.7737 141.46 57.7614 141.46 51.5785C141.46 45.3955 146.626 40.3833 152.999 40.3833ZM152.999 43.1164C157.816 43.1164 161.721 46.9051 161.721 51.5785C161.721 56.2519 157.816 60.0405 152.999 60.0405C148.182 60.0405 144.277 56.2519 144.277 51.5785C144.277 46.9051 148.182 43.1164 152.999 43.1164Z" fill="#002C47"/>
<path fill-rule="evenodd" clip-rule="evenodd" d="M62.9718 68.6676C70.9657 67.2481 77.403 73.6817 78.1839 80.2739C78.6558 84.2584 77.4919 88.1314 75.6225 90.6895C69.8116 98.6389 58.957 98.8083 53.7316 90.4004C52.7819 88.8726 52.3191 87.2554 52.2944 85.084C52.2062 77.3229 54.9902 70.0851 62.9718 68.6682V68.6676Z" fill="#E03C00"/>
<path fill-rule="evenodd" clip-rule="evenodd" d="M142.488 46.951C138.513 47.4624 132.679 48.9272 128.904 50.0318L141.674 49.4172C141.848 48.5563 142.123 47.7294 142.488 46.9504V46.951Z" fill="#E03C00"/>
<path fill-rule="evenodd" clip-rule="evenodd" d="M142.138 55.3702C139.037 55.7562 134.004 56.2323 129.57 57.0088L143.729 58.2476C143.063 57.3772 142.524 56.4093 142.139 55.3708L142.138 55.3702Z" fill="#E03C00"/>
<path fill-rule="evenodd" clip-rule="evenodd" d="M141.472 51.0627C139.346 51.326 130.872 52.5842 127.422 53.6938L141.618 53.4363C141.513 52.8317 141.459 52.2114 141.459 51.5791C141.459 51.4059 141.463 51.234 141.472 51.0627Z" fill="#E03C00"/>
<path d="M152.999 60.0405C157.816 60.0405 161.721 56.2519 161.721 51.5785C161.721 46.905 157.816 43.1164 152.999 43.1164C148.182 43.1164 144.277 46.905 144.277 51.5785C144.277 56.2519 148.182 60.0405 152.999 60.0405Z" fill="#E03C00"/>
<path fill-rule="evenodd" clip-rule="evenodd" d="M32.4613 67.9213C32.1069 66.0093 31.9498 64.0344 32.0141 62.0154C32.4535 48.2401 42.9848 37.0764 56.5138 34.9869C45.5579 39.7044 35.9854 47.6702 32.4613 67.9213Z" fill="#E03C00"/>
<path fill-rule="evenodd" clip-rule="evenodd" d="M51.8621 44.4559C52.9877 44.6303 54.0282 45.0063 54.9513 45.5397C48.9489 45.7098 44.2467 48.6016 41.8689 54.2694C41.7099 53.3739 41.6969 52.4381 41.8534 51.4903C42.6148 46.8666 47.0957 43.7172 51.8621 44.4559Z" fill="#E03C00"/>
<path fill-rule="evenodd" clip-rule="evenodd" d="M80.8661 85.7295C80.9116 85.5223 80.9512 85.3196 80.983 85.1231C81.6587 80.9881 81.305 73.6105 74.5639 68.4849C67.8228 63.36 59.5037 65.8551 57.0344 67.1857L55.5525 63.5904C55.0942 62.8448 54.2568 61.2541 53.1338 61.3466C53.1468 61.9562 54.0082 64.7838 54.0407 67.3079C54.0822 70.5197 51.8797 69.4466 50.6386 71.0726C50.7626 72.0985 51.241 72.2181 52.0355 72.8032C52.0368 74.7006 49.7091 77.4426 49.5643 83.5991C49.5462 84.3863 49.5728 85.1609 49.6306 85.9455C49.6955 86.8253 49.8876 88.6503 47.7358 87.3883C46.2123 86.4947 46.2376 83.7691 45.4281 82.2974C44.5953 83.2445 44.6687 84.5834 44.7505 86.0602C44.781 86.6156 44.8323 86.8259 44.5622 87.3014C42.0995 87.3115 41.2465 82.5486 40.5844 82.1047C40.2891 82.4605 40.3293 82.5335 40.2852 82.8711C40.1534 83.8478 40.7805 85.4669 39.9593 86.1943C38.6072 85.6773 38.0899 82.3503 38.071 81.0599C38.0522 79.7695 38.4774 78.9445 38.8338 78.0345C39.4783 76.389 39.612 77.1044 39.3381 75.1314C38.9383 72.2559 39.011 70.7571 39.5621 67.9742C42.3091 54.1019 55.6479 48.8831 67.1451 49.2962L68.8263 45.2797C71.2916 39.4003 76.4567 33.5674 82.1397 30.7959C92.5905 25.6986 103.38 27.9513 112.259 34.2054C113.558 35.1211 114.253 35.5417 115.201 36.5456C115.986 37.3762 117.138 38.7025 117.865 39.8826C118.592 41.0628 119.576 42.3242 119.809 44.3967C120.043 46.4686 118.439 48.7377 117.516 49.7887C116.593 50.8392 114.509 52.5653 112.866 53.2826C112.646 52.5464 112.881 52.4318 113.573 51.3896C113.003 51.5401 112.63 51.8121 112.068 51.9488C111.774 51.28 111.652 50.3649 111.342 49.732C110.964 48.9631 110.839 48.3995 109.896 48.3006L110.056 52.1522C109.783 52.258 109.137 52.3436 108.428 52.1245L108.574 52.2328L108.4 52.1119C108.24 51.9185 108.311 51.4771 108.156 51.2604C106.412 48.8334 102.943 45.558 100.628 43.6391C97.3311 40.906 94.079 38.6143 88.2129 38.8971L88.8691 39.1981C91.402 40.1969 90.3907 40.0306 92.1277 40.9986C91.7103 41.326 91.1618 41.3197 90.5919 41.4488C89.3982 41.7203 88.1265 42.4363 87.3255 43.2159C84.5927 45.8754 84.0111 50.3996 84.7537 54.1945C85.2678 56.8244 86.1701 57.9724 86.5271 59.3264C85.0023 59.9032 83.4075 61.6949 82.5487 62.7371C76.9156 69.5719 83.3172 80.8023 99.5316 75.4538C104.535 73.8038 107.827 70.7401 108.926 69.8477L109.116 69.8565L112.119 70.3106L112.276 72.1709L112.233 72.7263C111.652 73.5702 111.073 74.3234 110.844 74.5759C104.816 82.0033 91.8616 90.8104 80.8668 85.7302L80.8661 85.7295Z" fill="#024873"/>
<defs>
<filter id="filter0_d_4318_179" x="0" y="0" width="170" height="169.105" filterUnits="userSpaceOnUse" color-interpolation-filters="sRGB">
<feFlood flood-opacity="0" result="BackgroundImageFix"/>
<feColorMatrix in="SourceAlpha" type="matrix" values="0 0 0 0 0 0 0 0 0 0 0 0 0 0 0 0 0 0 127 0" result="hardAlpha"/>
<feOffset dy="4"/>
<feGaussianBlur stdDeviation="2"/>
<feComposite in2="hardAlpha" operator="out"/>
<feColorMatrix type="matrix" values="0 0 0 0 0 0 0 0 0 0 0 0 0 0 0 0 0 0 0.5 0"/>
<feBlend mode="normal" in2="BackgroundImageFix" result="effect1_dropShadow_4318_179"/>
<feBlend mode="normal" in="SourceGraphic" in2="effect1_dropShadow_4318_179" result="shape"/>
</filter>
</defs>
</svg>
